<?xml version="1.0" encoding="UTF-8"?>
<svg id="Layer_2" data-name="Layer 2" xmlns="http://www.w3.org/2000/svg" viewBox="0 0 821.36 614.13">
  <defs>
    <style>
      .cls-1 {
        fill: #4b4f54;
      }

      .cls-1, .cls-2, .cls-3, .cls-4 {
        stroke-width: 0px;
      }

      .cls-2 {
        fill: #a51b2f;
      }

      .cls-3 {
        fill: #fff;
      }

      .cls-4 {
        fill: #fdb81e;
      }
    </style>
  </defs>
  <g id="Layer_1-2" data-name="Layer 1">
    <g>
      <path class="cls-2" d="m270.99,263.44L0,261.76l250.85,51.18c5.03-15.94,12.58-32.72,20.14-49.5Zm-35.24,147.66v-3.36H6.71l234.07,49.5c-2.52-15.1-5.03-30.2-5.03-46.14Zm209.74,203.03c167.8,0,334.75-140.11,375.86-360.76l-65.44,22.65,37.75-52.02-162.76,70.47c-36.92,81.38-118.3,141.79-194.64,141.79-62.92,0-101.52-41.11-101.52-109.07,0-113.26,104.03-224.85,208.07-224.85,65.44,0,107.39,42.79,107.39,109.07,0,22.65-5.03,46.98-15.1,71.31l177.86-151.02C781.93,46.14,700.55,0,560.44,0c-88.09,0-277.7,31.04-348.18,46.14,132.56,1.68,184.58,0,260.92,11.75-38.59,19.3-72.15,45.3-102.36,78.02H103.19l220.65,45.3c7.55-5.87,15.94-11.75,25.17-16.78-63.76,75.51-98.16,170.31-98.16,255.89,0,73.83,39.43,140.11,92.29,167.8-24.33-8.39-46.98-21.81-57.05-36.92-76.35-6.71-140.11-13.42-215.62-24.33,104.03,46.14,256.73,87.25,375.02,87.25Z"/>
      <path class="cls-3" d="m446.34,597.35c-75.51,0-132.56-34.4-166.12-97.32,28.53,47.82,76.35,72.99,141.79,72.99,140.11,0,278.54-111.58,330.56-260.08l-67.96,15.1,30.54-49.54-78.1,26.35,117.46-51.18-26.28,43.32,66.28-20.97c-29.36,167.8-192.96,321.33-348.18,321.33Z"/>
      <path class="cls-3" d="m791.61,126.49l-30.2,26.01c-21.43-83.7-109.52-134.64-247.12-134.64-29.36,0-72.15,2.52-89.77,3.36,45.3-8.39,99-11.41,135.08-11.41,113.36,0,203.87,47.25,232.01,116.68Z"/>
      <path class="cls-4" d="m422.01,573.02c-65.44,0-113.26-25.17-141.79-72.99,20.14,36.08,71.31,57.89,131.72,57.89,119.97,0,255.89-95.64,307.9-218.13l-73.83,15.94,38.86-56.75-47.82,5.87,78.1-26.35-30.54,49.54,67.96-15.1c-52.02,148.5-190.45,260.08-330.56,260.08Z"/>
      <path class="cls-4" d="m761.41,152.49l-26.01,22.65C715.65,57.89,606.58,15.34,424.52,21.21c17.62-.84,60.41-3.36,89.77-3.36,137.59,0,225.68,50.94,247.12,134.64Z"/>
    </g>
    <path class="cls-1" d="m390.12,414.45c-17.62-18.46-27.69-44.47-27.69-78.02,0-107.39,100.68-210.58,193.8-210.58,24.33,0,43.63,5.87,57.89,15.94-15.94-16.78-40.27-27.69-71.31-27.69-96.48,0-194.64,104.87-194.64,212.26,0,41.95,15.1,71.31,41.95,88.09Z"/>
  </g>
</svg>