<svg width="131" height="85" viewBox="0 0 131 85" fill="none" xmlns="http://www.w3.org/2000/svg">
<path d="M0.90332 56.746C0.90332 50.4122 2.34921 43.6562 2.34921 43.6562C2.34921 43.6562 4.17897 42.044 6.00873 40.6877C7.8001 39.3313 9.28438 38.5508 9.28438 38.5508C9.71943 38.4612 10.244 38.4229 10.807 38.4229C12.8159 38.4229 14.8632 39.2034 16.3987 40.8668C18.0109 42.6582 19.4568 45.4476 19.4568 51.0392C19.4568 59.1516 17.883 64.2186 17.883 64.2186C16.6546 65.7924 12.9055 68.8889 11.4724 69.5799C11.0758 69.6695 10.5511 69.7079 9.98813 69.7079C3.05297 69.7079 0.916116 63.5148 0.916116 56.746M12.6496 63.8091C12.6496 63.8091 13.4813 59.6634 13.4813 54.3405C13.4813 49.0175 12.8287 44.0017 7.76171 44.0017C7.76171 44.0017 6.89162 47.7124 6.89162 55.0826C6.89162 61.1861 8.84933 63.9371 11.6515 63.9371C12.0866 63.9371 12.3425 63.8987 12.6496 63.8091Z" fill="white"/>
<path d="M22.502 69.1834C22.502 69.1834 22.6299 62.6449 22.6299 53.9184C22.6299 45.1918 22.502 38.6533 22.502 38.6533H28.3879C28.3879 38.6533 28.2599 46.2922 28.2599 53.9184V64.6026C31.7531 64.6026 35.1951 64.1676 35.1951 64.1676L31.7915 69.1834H22.502Z" fill="white"/>
<path d="M36.9492 69.1845C36.9492 69.1845 37.0772 61.328 37.0772 53.0365C37.0772 45.6152 36.9492 38.6416 36.9492 38.6416H42.9759C42.9759 38.6416 42.8479 45.6279 42.8479 53.0365C42.8479 61.328 42.9759 69.1845 42.9759 69.1845H36.9492Z" fill="white"/>
<path d="M45.5832 69.4008C45.5832 69.4008 46.287 61.4548 46.7988 53.4704C47.285 46.1002 47.6305 38.6404 47.6305 38.6404L54.3481 38.4229C54.3481 38.4229 55.8324 45.4092 56.92 50.2459C58.1484 55.5304 59.0185 58.934 59.0185 58.934C59.0185 58.934 59.9398 55.5304 61.1553 50.2459C62.2941 45.3964 63.7784 38.6404 63.7784 38.6404L71.3278 38.4229C71.3278 38.4229 71.5069 46.1513 71.814 53.4704C72.1595 61.2756 72.6841 68.9657 72.6841 68.9657L66.5295 69.4008C66.5295 69.4008 66.3503 62.5552 66.1328 56.9635C65.9153 51.9477 65.6466 48.1986 65.6466 48.1986C65.6466 48.1986 64.5589 52.3444 63.8168 55.62L61.3729 66.3043L61.68 68.9657L55.4357 69.1832C55.4357 69.1832 54.2202 63.2461 53.0302 57.9232C52.0705 53.6495 51.1493 49.7597 51.1493 49.7597C51.1493 49.7597 50.9317 53.5983 50.8038 57.9232C50.6246 63.1182 50.5351 68.9657 50.5351 68.9657L45.5576 69.4008H45.5832Z" fill="white"/>
<path d="M75.6416 52.1652C75.6416 45.3196 75.5137 38.6404 75.5137 38.6404C75.5137 38.6404 79.4419 38.4229 81.7963 38.4229C84.1506 38.4229 86.6458 38.4228 88.7314 39.9455C90.8683 41.5194 91.3033 43.7842 91.3033 46.4456C91.3033 49.7213 90.2541 52.6898 90.2541 52.6898C88.821 54.5196 85.7117 56.9251 84.189 57.7952C84.189 57.7952 83.1014 57.9744 81.7067 57.9744C81.7067 64.0394 81.7963 69.1832 81.7963 69.1832H75.5137C75.5137 69.1832 75.6416 60.3288 75.6416 52.1652ZM84.6753 53.1249C84.6753 53.1249 85.2894 51.0776 85.2894 48.237C85.2894 45.7931 84.7264 43.3875 82.5384 43.3875C82.2313 43.3875 82.0522 43.3875 81.6683 43.4259V48.0451C81.6683 51.6662 81.7067 53.1505 81.7067 53.1505C82.1417 53.2784 82.7047 53.3296 83.2805 53.3296C84.1506 53.3296 84.6753 53.1121 84.6753 53.1121" fill="white"/>
<path d="M93.4902 69.1845C93.4902 69.1845 93.6182 61.328 93.6182 53.0365C93.6182 45.6152 93.4902 38.6416 93.4902 38.6416H99.5169C99.5169 38.6416 99.389 45.6279 99.389 53.0365C99.389 61.328 99.5169 69.1845 99.5169 69.1845H93.4902Z" fill="white"/>
<path d="M102.26 71.4493C102.132 70.6176 101.607 66.2159 101.607 66.2159C102.836 66.6126 104.09 66.651 104.09 66.651C104.09 66.651 104.179 60.33 104.179 53.4716C104.179 46.2677 104.09 38.6416 104.09 38.6416H109.72C109.72 38.6416 109.63 46.1014 109.63 53.4716C109.63 59.575 109.72 65.6017 109.72 65.9088C108.85 67.649 106.188 71.3213 105.101 72.4985C104.755 72.6776 104.486 72.7672 103.923 72.7672C103.053 72.7672 102.35 72.0635 102.26 71.4621" fill="white"/>
<path d="M111.685 69.4008C111.685 69.4008 112.823 64.1162 113.911 57.9744C115.434 49.2862 117.136 38.6404 117.136 38.6404L124.506 38.4229C124.506 38.4229 126.246 49.0687 127.909 57.9744C128.959 63.4765 130.085 68.9657 130.085 68.9657L123.84 69.4008C123.84 69.4008 123.06 64.0395 122.446 60.5463H117.647C117.084 64.0395 116.56 68.9657 116.56 68.9657L111.672 69.4008H111.685ZM118.313 56.183H121.844L119.963 45.7163L118.3 56.183H118.313Z" fill="white"/>
<path d="M68.2283 27.061C68.2283 27.061 68.2923 26.9715 68.3179 26.9203C68.625 26.3317 68.7401 25.6279 68.7145 24.7067C68.7017 24.2076 68.5354 23.6319 68.3307 22.9537C69.4055 23.4399 69.9557 24.6299 69.9557 24.6299C70.6978 21.7893 69.4567 19.1278 68.1387 17.3493C66.936 15.7114 65.8228 14.9053 65.1062 13.9073C64.3257 12.8196 63.7755 11.6936 63.8395 10.606C63.9034 9.59518 64.5816 8.78906 65.4133 8.45638C65.9763 8.22606 66.4369 8.41799 66.7696 8.73788C66.7056 7.95735 65.9891 7.30478 64.8759 7.38156C63.6731 7.45833 62.2528 8.72508 61.741 10.2861C61.3571 11.4377 61.1012 13.2419 61.5107 15.4427C61.8689 17.362 63.2509 20.0747 63.6603 21.1367C64.057 22.1476 64.6456 23.1968 64.7223 25.0394C64.2105 24.7067 63.5707 24.2716 62.5215 23.6191C60.7046 22.4675 58.6317 21.3287 56.3413 21.5334C57.8 21.7253 59.5658 22.4291 60.0776 23.3503C60.0776 23.3503 57.6208 21.6358 54.8954 23.312C54.8954 23.312 56.3797 22.7106 57.5569 23.4143C57.5569 23.4143 55.6503 23.7982 55.7015 25.6279C55.7399 27.4705 58.0303 28.4941 59.5274 28.4813C60.7046 28.4813 61.805 28.2382 62.9182 27.7264C62.9182 27.7264 61.741 28.0847 60.7046 28.0079C59.6681 27.9311 58.3374 27.6113 58.3886 26.9843C58.4397 26.2805 59.8473 26.2293 60.7685 26.4341C61.2036 26.5364 62.3552 26.8691 63.1869 27.5729C63.3148 27.4961 65.1446 26.6644 65.81 25.1161C66.5137 23.4783 66.2962 20.932 65.4261 19.0127C64.5688 17.1445 63.3916 15.4811 62.931 13.8945C62.6623 12.9732 61.9329 9.67195 64.4408 8.35401C64.0826 8.62272 63.6731 9.08336 63.366 9.88948C62.8542 11.233 63.3404 13.2803 63.8522 14.3167C64.8631 16.3256 65.7076 17.4388 66.4369 19.1918C67.2687 21.2135 67.4222 23.5807 66.7568 25.2569C65.8356 27.5857 63.5963 28.3662 62.1249 28.814C59.7065 29.5306 57.7232 29.1339 56.5076 28.0719C55.8679 27.5217 55.5096 26.8819 55.3816 26.2293C55.2025 25.0649 55.7271 24.3484 55.7271 24.3484C55.2665 24.8346 54.793 25.5128 54.7546 26.4213C54.6395 28.5453 56.8403 29.9912 58.6701 30.4007C59.7705 30.6438 61.3187 30.6438 62.9182 30.2727C63.7883 30.068 64.5176 29.8377 65.1446 29.5818C67.1535 30.5798 69.7254 30.6822 70.7234 30.6438C72.2461 30.5798 73.2953 30.2471 74.4341 29.6969C78.2088 27.8544 78.324 23.7086 78.324 23.7086C75.4706 28.4302 69.9941 27.6624 68.2411 27.0866M71.8366 29.3386C69.9557 29.5818 67.7421 29.2107 66.7056 28.7245C66.9616 28.5325 67.1919 28.3406 67.3966 28.1359C68.3819 28.4941 69.9173 28.9676 71.6959 28.814C73.4233 28.6605 74.7284 28.1871 76.4942 26.9075C76.4942 26.9075 74.754 28.9804 71.8366 29.3514" fill="#2DB279"/>
<path d="M55.9846 15.6733C56.7012 17.0296 57.5713 17.2088 57.5713 17.2088C55.9846 14.4066 57.149 13.1782 57.149 13.1782C57.5201 14.4066 58.1855 14.5345 58.1855 14.5345C57.6224 13.69 57.6097 12.7687 57.9551 12.4105C58.0831 12.2697 58.2878 12.2697 58.4158 12.3465C58.6077 12.4744 58.6845 12.6408 58.774 12.8583C59.4138 14.5089 60.4886 16.8889 61.845 18.0149C61.845 18.0149 60.655 15.942 60.7701 12.6792C60.8597 9.94093 62.0241 7.50978 64.3273 6.78044C66.3362 6.15346 67.0016 7.79128 67.0271 8.3287C67.0271 8.52063 67.1167 9.749 65.9651 9.97932C65.9651 9.97932 66.3618 10.5935 67.7565 10.3248C69.1384 10.0561 69.7782 10.376 70.0469 11.3612C70.3156 12.3465 69.5095 12.9863 68.9593 13.127C68.9593 13.127 69.036 15.1231 71.2241 15.0975C71.2241 15.0975 70.6099 14.5857 70.5843 14.0355C70.5843 14.0355 70.8018 14.2146 71.0961 14.3298C71.0961 14.3298 70.7762 13.7668 70.7506 13.1526C70.7506 13.1526 70.8914 13.3573 71.1473 13.5365C71.1473 13.5365 70.8402 12.9351 70.9554 12.5384C70.9554 12.5384 71.6207 11.2845 72.2221 11.0797C72.2221 11.0797 73.2074 11.502 73.4633 12.0522C73.5273 12.1801 73.668 12.7687 73.5912 13.1526C73.5912 13.1526 73.8472 12.9607 73.8216 12.628C73.8216 12.628 74.1287 13.0246 74.1542 13.3701C74.1926 13.5876 74.1798 13.9715 74.0903 14.3554C74.0903 14.3554 74.3974 14.2146 74.4229 13.8052C74.4229 13.8052 74.7172 14.6241 74.6917 14.9952C74.6661 15.3662 74.5125 15.6733 74.5125 15.6733C74.5125 15.6733 75.0755 15.3918 75.1267 14.88C75.1779 14.3682 76.5854 13.5109 76.5854 13.5109C76.6494 13.127 76.7006 11.4764 76.3551 10.8238C76.3551 10.8238 76.3935 11.2717 76.0224 11.9498C76.0224 11.9498 74.4997 11.2077 74.9987 8.3287C74.9987 8.3287 73.5657 7.7401 73.2969 4.66918C73.2969 4.66918 72.8107 5.44971 73.0794 6.3326C73.0794 6.3326 72.7595 6.07669 72.2605 5.79519C72.0814 5.69282 71.7231 5.48809 71.6207 5.41132C70.4435 4.55402 68.7162 2.96738 68.2811 0.523438C68.2811 0.523438 67.9356 2.3532 69.228 4.65639C68.6778 4.50284 67.91 4.34929 67.3086 4.25973C66.8352 4.08059 64.7879 3.54318 63.7003 1.22719C63.7003 1.22719 63.9306 3.1977 65.4789 4.25973C65.0694 4.29811 64.6856 4.36209 64.3145 4.45166C63.4444 4.15736 62.4719 3.65834 61.5891 2.18685C61.5891 2.18685 61.9345 3.83747 63.3037 4.79714C62.971 4.93789 62.6383 5.12982 62.408 5.27057C61.5123 5.09143 60.5654 4.70757 59.8617 3.65834C59.8617 3.65834 60.2455 5.15541 61.6914 5.79519C61.4995 5.94873 61.2436 6.17905 61.1156 6.3198C60.6166 6.39657 58.9916 6.37098 58.4414 5.66723C58.4414 5.66723 58.5693 6.70367 60.527 7.01076C60.3863 7.20269 60.2199 7.4586 60.1048 7.66333C59.9384 7.77849 58.8764 8.49504 57.7888 8.3031C57.7888 8.3031 58.339 8.77654 59.593 8.58461C59.593 8.58461 59.1067 9.92813 59.1067 11.003C56.3301 8.96847 57.5457 5.78239 58.1471 4.78434C58.1471 4.78434 54.1293 5.56487 53.0033 10.8238C51.3399 18.5907 56.9571 20.3693 56.9571 20.3693C55.2809 17.8486 55.9846 15.6733 55.9846 15.6733ZM73.3737 8.55902C73.9495 8.76374 74.0007 8.98127 74.2438 9.36513C73.9111 9.51868 72.9387 9.4547 72.1837 7.84247C72.1837 7.84247 72.7723 8.35429 73.3737 8.55902Z" fill="#2DB279"/>
<path d="M39.8535 84.5513V84.4874C39.9943 84.1419 40.0582 83.5405 40.0582 83.0287V78.3967C40.0582 77.8849 39.9943 77.2707 39.8535 76.938V76.874H41.5425V76.938C41.4018 77.2835 41.3378 77.8849 41.3378 78.3967V83.9244H42.5534C43.3723 83.9244 43.9865 83.4125 44.3703 82.7344H44.4343L44.268 84.6793L43.3723 84.5641H39.8535V84.5513Z" fill="white"/>
<path d="M44.8984 84.1035L44.7832 82.2993H44.8472C45.3846 83.4509 46.1779 84.0011 46.8561 84.0011C47.6238 84.0011 47.9181 83.3997 47.9181 82.2353V78.3967C47.9181 77.8849 47.8413 77.2707 47.6622 76.938V76.874H49.4024V76.938C49.2616 77.2835 49.1977 77.8849 49.1977 78.3967V82.0818C49.1977 83.7708 48.2764 84.6921 46.8305 84.6921C46.2291 84.6921 45.4614 84.449 44.8984 84.1035Z" fill="white"/>
<path d="M50.5553 81.8643V78.3967C50.5553 77.8849 50.4913 77.2707 50.3506 76.938V76.874H52.0396V76.938C51.8988 77.2835 51.8349 77.8849 51.8349 78.3967V81.7235C51.8349 83.1566 52.3083 83.9371 53.4215 83.9371C54.4451 83.9371 54.9954 83.131 54.9954 81.5444V78.3967C54.9954 77.8849 54.9314 77.2707 54.7906 76.938V76.874H55.8399V76.938C55.6991 77.2835 55.6351 77.8849 55.6351 78.3967V81.5316C55.6351 83.9244 54.5091 84.6921 53.1528 84.6921C51.4638 84.6921 50.5681 83.7196 50.5681 81.8643" fill="white"/>
<path d="M62.0167 82.439C62.0167 83.8465 60.814 84.563 59.2913 84.563H56.8857V84.4991C57.0265 84.1536 57.0905 83.5522 57.0905 83.0404V78.4084C57.0905 77.8966 57.0265 77.2824 56.8857 76.9497V76.8857H59.0994C60.3533 76.8857 61.6585 77.4743 61.6585 78.8435C61.6585 79.6368 61.313 80.1998 60.5836 80.5325C61.5305 80.8523 62.0167 81.4921 62.0167 82.4518M58.3572 78.1909V80.251H59.0226C59.9183 80.251 60.3661 79.7008 60.3661 78.8946C60.3661 77.999 59.7519 77.5127 58.9458 77.5127C58.4724 77.5127 58.3572 77.6791 58.3572 78.1781M59.1761 83.9233C60.1742 83.9233 60.6988 83.1555 60.6988 82.439C60.6988 81.6201 60.1998 80.8651 59.1377 80.8651H58.3444V83.9233H59.1633H59.1761Z" fill="white"/>
<path d="M62.9316 84.5513V84.4874C63.0724 84.1419 63.1364 83.5405 63.1364 83.0287V78.3967C63.1364 77.8849 63.0724 77.2707 62.9316 76.938V76.874H64.6206V76.938C64.4799 77.2835 64.4159 77.8849 64.4159 78.3967V83.9244H65.6315C66.4504 83.9244 67.0646 83.4125 67.4485 82.7344H67.5124L67.3461 84.6793L66.4504 84.5641H62.9316V84.5513Z" fill="white"/>
<path d="M67.9882 84.1035L67.873 82.2993H67.937C68.4744 83.4509 69.2678 84.0011 69.9459 84.0011C70.7136 84.0011 71.0079 83.3997 71.0079 82.2353V78.3967C71.0079 77.8849 70.9312 77.2707 70.752 76.938V76.874H72.4922V76.938C72.3515 77.2835 72.2875 77.8849 72.2875 78.3967V82.0818C72.2875 83.7708 71.3662 84.6921 69.9203 84.6921C69.3189 84.6921 68.5512 84.449 67.9882 84.1035Z" fill="white"/>
<path d="M78.0604 83.3613C78.2396 83.9499 78.4571 84.3338 78.6362 84.4874V84.5641H76.6657V84.4874C76.8321 84.2826 76.9216 83.9627 76.7425 83.3613L76.397 82.2225H74.273L73.9275 83.3486C73.7611 83.8988 73.7484 84.2698 73.9915 84.4746V84.5513H72.7119V84.4746C72.9166 84.2826 73.0702 83.9499 73.2621 83.3486L75.207 76.874H76.0899L78.0604 83.3613ZM74.4649 81.5828H76.2051L75.335 78.7038L74.4649 81.5828Z" fill="white"/>
<path d="M83.5337 76.8604H84.6342V76.9243C84.4934 77.2698 84.4294 77.8712 84.4294 78.383V84.5377H84.3655L80.1941 79.1252V83.015C80.1941 83.5268 80.2709 84.141 80.45 84.4737V84.5377H79.3496V84.4737C79.4904 84.1282 79.5543 83.5268 79.5543 83.015V78.383C79.5543 77.8712 79.4904 77.257 79.3496 76.9243V76.8604H80.0406L83.7896 81.7098V78.383C83.7896 77.8712 83.7129 77.257 83.5337 76.9243V76.8604Z" fill="white"/>
<path d="M90.5711 83.3613C90.7502 83.9499 90.9677 84.3338 91.1469 84.4874V84.5641H89.1764V84.4874C89.3427 84.2826 89.4323 83.9627 89.2531 83.3613L88.9077 82.2225H86.7836L86.4381 83.3486C86.2718 83.8988 86.259 84.2698 86.5021 84.4746V84.5513H85.2354V84.4746C85.4401 84.2826 85.5936 83.9499 85.7855 83.3486L87.7305 76.874H88.6134L90.5839 83.3613H90.5711ZM86.9755 81.5828H88.7157L87.8456 78.7038L86.9755 81.5828Z" fill="white"/>
</svg>
